<svg width="36" height="36" viewBox="0 0 36 36" fill="none" xmlns="http://www.w3.org/2000/svg">
<path d="M13.2002 27.6C13.2002 27.6 14.6402 21.6141 18.0002 18" stroke="#05FF00" stroke-width="2.57174" stroke-linecap="round" stroke-linejoin="round"/>
<path d="M24.6974 10.3861L25.2964 16.609C25.6852 20.6458 22.6585 24.2402 18.6215 24.6288C14.6605 25.0102 11.0723 22.1149 10.6908 18.1539C10.3094 14.1929 13.2113 10.6726 17.1724 10.2913L23.8071 9.65239C24.2556 9.6092 24.6542 9.93772 24.6974 10.3861Z" stroke="#05FF00" stroke-width="2.57174" stroke-linecap="round" stroke-linejoin="round"/>
<path d="M18 34C26.8365 34 34 26.8365 34 18C34 9.16344 26.8365 2 18 2C9.16344 2 2 9.16344 2 18C2 26.8365 9.16344 34 18 34Z" stroke="#05FF00" stroke-width="2.57174" stroke-linecap="round" stroke-linejoin="round"/>
</svg>
